# AST/ASF file generated using VICON BodyLanguage
# -----------------------------------------------
:version 1.10
:name VICON
:units
  mass 1.0
  length 0.45
  angle deg
:documentation
   .ast/.asf automatically generated from VICON data using
   VICON BodyBuilder and BodyLanguage model FoxedUp or BRILLIANT.MOD
:root
   order TX TY TZ RX RY RZ
   axis XYZ
   position 0 0 0  
   orientation 0 0 0 
:bonedata
  begin
     id 1 
     name lhipjoint
     direction 0.537252 -0.787203 0.302774 
     length 2.29576 
     axis 0 0 0  XYZ
  end
  begin
     id 2 
     name lfemur
     direction 0.34202 -0.939693 0  
     length 7.31114  
     axis 0 0 20  XYZ
    dof rx ry rz
    limits (-160.0 20.0)
           (-70.0 70.0)
           (-60.0 70.0)
  end
  begin
     id 3 
     name ltibia
     direction 0.34202 -0.939693 0   
     length 8.36008   
     axis 0 0 20   XYZ
    dof rx
    limits (-10.0 170.0)
  end
  begin
     id 4 
     name lfoot
     direction 0.0969116 -0.266263 0.959016   
     length 2.16704   
     axis -90 7.62852e-016 20   XYZ
    dof rx rz
    limits (-45.0 90.0)
           (-70.0 20.0)
  end
  begin
     id 5 
     name ltoes
     direction 1.53563e-011 -4.21779e-011 1   
     length 1.08338   
     axis -90 7.62852e-016 20   XYZ
    dof rx
    limits (-90.0 20.0)
  end
  begin
     id 6 
     name rhipjoint
     direction -0.588228 -0.754791 0.290308   
     length 2.39434  
     axis 0 0 0  XYZ 
  end
  begin
     id 7 
     name rfemur
     direction -0.34202 -0.939693 0   
     length 7.45207   
     axis 0 0 -20   XYZ
    dof rx ry rz
    limits (-160.0 20.0)
           (-70.0 70.0)
           (-70.0 60.0)
  end
  begin
     id 8 
     name rtibia
     direction -0.34202 -0.939693 0   
     length 8.03565   
     axis 0 0 -20   XYZ
    dof rx
    limits (-10.0 170.0)
 end
 begin
     id 9 
     name rfoot
     direction -0.107009 -0.294004 0.949795   
     length 2.11509  
     axis -90 -7.62852e-016 -20   XYZ
    dof rx rz
    limits (-45.0 90.0)
           (-20.0 70.0)
  end
  begin
     id 10 
     name rtoes
     direction -1.53533e-011 -4.22004e-011 1   
     length 1.05493   
     axis -90 -7.62852e-016 -20   XYZ
    dof rx
    limits (-90.0 20.0)
  end
  begin
     id 11 
     name lowerback
     direction -0.0115208 0.997969 -0.0626515   
     length 2.03153   
     axis 0 0 0   XYZ
    dof rx ry rz
    limits (-20.0 45.0)
           (-30.0 30.0)
           (-30.0 30.0)
  end
  begin
     id 12 
     name upperback
     direction -0.00423475 0.999974 -0.00583614   
     length 2.03619   
     axis 0 0 0   XYZ
    dof rx ry rz
    limits (-20.0 45.0)
           (-30.0 30.0)
           (-30.0 30.0)
  end
  begin
     id 13 
     name thorax
     direction 0.00289429 0.999728 0.0231573   
     length 2.03921   
     axis 0 0 0   XYZ
    dof rx ry rz
    limits (-20.0 45.0)
           (-30.0 30.0)
           (-30.0 30.0)
  end
  begin
     id 14 
     name lowerneck
     direction 0.0188995 0.987777 0.154721   
     length 1.78836   
     axis 0 0 0   XYZ
    dof rx ry rz
    limits (-20.0 45.0)
           (-30.0 30.0)
           (-30.0 30.0)
  end
  begin
     id 15 
     name upperneck
     direction -0.00612612 0.992995 -0.118   
     length 1.81789   
     axis 0 0 0   XYZ
    dof rx ry rz
    limits (-20.0 45.0)
           (-30.0 30.0)
           (-30.0 30.0)
  end
  begin
     id 16
     name head
     direction -0.00420226 0.998397 -0.0564482  
     length 1.82234  
     axis 0 0 0   XYZ
    dof rx ry rz
    limits (-20.0 45.0)
           (-30.0 30.0)
           (-30.0 30.0)
  end
  begin
     id 17 
     name lclavicle
     direction 0.916488 0.396539 0.0529676  
     length 3.51732  
     axis 0 0 0   XYZ
    dof ry rz
    limits (-20.0 10.0)
           (0.0 20.0)
  end
  begin
     id 18 
     name lhumerus
     direction 1 -4.4896e-011 8.36962e-028   
     length 5.45077   
     axis 180 -30 -90   XYZ
    dof rx ry rz
    limits (-60.0 90.0)
           (-90.0 90.0)
           (-90.0 90.0)
  end
  begin
     id 19
     name lradius
     direction 1 -4.48962e-011 3.01407e-027   
     length 3.05488   
     axis 180 -30 -90   XYZ
    dof rx
    limits (-10.0 170.0)
  end
  begin
     id 20
     name lwrist
     direction 1 -4.49002e-011 4.72961e-027   
     length 1.52744   
     axis -2.72261e-015 90 90   XYZ
    dof ry
    limits (-180.0 0.0)
 end
  begin
     id 21 
     name lhand
     direction 1 -4.4899e-011 9.45681e-027   
     length 0.638818   
     axis -6.0311e-015 90 90   XYZ
    dof rx rz
    limits (-90.0 90.0)
           (-45.0 45.0)
  end
  begin
     id 22 
     name lfingers
     direction 1 -4.48871e-011 1.88632e-026   
     length 0.515032   
     axis -1.20625e-014 90 90   XYZ
    dof rx
    limits (0.0 90.0)
  end
  begin
     id 23
     name lthumb
     direction 0.707107 -6.34964e-011 0.707107   
     length 0.739485   
     axis -90 45 6.32835e-014   XYZ
    dof rx rz
    limits (-45.0 45.0)
           (-45.0 45.0)
  end
  begin
     id 24 
     name rclavicle
     direction -0.949427 0.303202 0.0815894   
     length 3.76167  
     axis 0 0 0   XYZ 
    dof ry rz
    limits (-10.0 20.0)
           (-20.0 0.0)
  end
  begin
     id 25 
     name rhumerus
     direction -1 -4.48971e-011 -6.43969e-018  
     length 4.88702   
     axis 180 30 90   XYZ
    dof rx ry rz
    limits (-90.0 60.0)
           (-90.0 90.0)
           (-90.0 90.0)
  end
  begin
     id 26 
     name rradius
     direction -1 -4.48987e-011 5.46662e-027   
     length 3.22603   
     axis 180 30 90   XYZ
    dof rx
    limits (-10.0 170.0)
  end
  begin
     id 27 
     name rwrist
     direction -1 -4.48956e-011 4.72476e-027   
     length 1.61302   
     axis -2.72261e-015 -90 -90   XYZ
    dof ry
    limits (-180.0 0.0)
  end
  begin
     id 28
     name rhand
     direction -1 -4.4889e-011 9.43571e-027   
     length 0.716293   
     axis -6.0311e-015 -90 -90   XYZ
    dof rx rz
    limits (-90.0 90.0)
           (-45.0 45.0)
  end
  begin
     id 29
     name rfingers
     direction -1 -4.48887e-011 1.88701e-026   
     length 0.577494   
     axis -1.20625e-014 -90 -90   XYZ
    dof rx
    limits (0.0 90.0)
  end
  begin
     id 30
     name rthumb
     direction -0.707107 -6.34825e-011 0.707107   
     length 0.829169   
     axis -90 -45 -6.32835e-014   XYZ
    dof rx rz
    limits (-45.0 45.0)
           (-45.0 45.0)
  end
:hierarchy
  begin
    root lhipjoint rhipjoint lowerback
    lhipjoint lfemur
    lfemur ltibia
    ltibia lfoot
    lfoot ltoes
    rhipjoint rfemur
    rfemur rtibia
    rtibia rfoot
    rfoot rtoes
    lowerback upperback
    upperback thorax
    thorax lowerneck lclavicle rclavicle
    lowerneck upperneck
    upperneck head
    lclavicle lhumerus
    lhumerus lradius
    lradius lwrist
    lwrist lhand lthumb
    lhand lfingers
    rclavicle rhumerus
    rhumerus rradius
    rradius rwrist
    rwrist rhand rthumb
    rhand rfingers
  end

#!OML:ASF F:\VICON\USERDATA\INSTALL\rory3\rory3.ASF
:FULLY-SPECIFIED
:DEGREES
694
root 1.74898 18.4646 0.233661 27.1035 92.5029 17.2081
lowerback -9.74081 -0.84291 1.41375
upperback -3.15986 -1.16775 0.614385
thorax 2.16189 -0.537506 -0.291214
lowerneck -16.4109 4.55881 6.71613
upperneck 28.5124 7.5439 -7.34662
head 12.7656 3.37045 -2.71237
rclavicle -2.78609e-015 -3.97569e-016
rhumerus -30.8927 -8.80881 -84.0792
rradius 38.9792
rwrist -154.759
rhand -22.8629 -7.95526
rfingers 7.12502
rthumb 3.5755 -37.905
lclavicle -2.78609e-015 -3.97569e-016
lhumerus -37.4157 -16.0598 93.3684
lradius 34.5406
lwrist 12.7605
lhand -9.2929 27.7702
lfingers 7.12502
lthumb 16.6645 57.0749
rfemur -2.18541 -12.8095 18.6936
rtibia 1.27222e-014
rfoot -7.33442 0.758348
rtoes -15.559
lfemur -12.1103 7.9878 -16.2319
ltibia 19.3003
lfoot -15.9584 -3.47361
ltoes -28.3695
695
root 1.75337 18.4641 0.237379 27.1414 92.5141 17.3173
lowerback -9.79224 -0.791117 1.51169
upperback -3.12528 -1.11029 0.60761
thorax 2.22469 -0.508688 -0.347803
lowerneck -16.1812 5.07031 7.07282
upperneck 28.8733 8.38291 -7.65555
head 12.9773 3.7581 -2.75864
rclavicle -9.05402e-015 -3.77691e-015
rhumerus -30.9313 -8.97029 -83.9841
rradius 39.0354
rwrist -154.758
rhand -22.8713 -7.97763
rfingers 7.12502
rthumb 3.56743 -37.9275
lclavicle -9.05402e-015 -3.77691e-015
lhumerus -37.294 -16.1791 93.3256
lradius 34.4821
lwrist 12.7238
lhand -8.90896 28.3686
lfingers 7.12502
lthumb 17.0341 57.6418
rfemur -2.07989 -12.8153 18.6944
rtibia -3.97569e-015
rfoot -7.35262 0.76298
rtoes -15.6042
lfemur -12.028 7.96376 -16.1993
ltibia 19.3179
lfoot -15.9688 -3.46115
ltoes -28.3786
696
root 1.75609 18.4614 0.23976 27.3276 92.51 17.5434
lowerback -9.8554 -0.753027 1.61858
upperback -3.12561 -1.07089 0.622606
thorax 2.25788 -0.488473 -0.388741
lowerneck -15.8354 5.57176 7.4242
upperneck 29.2298 9.23153 -7.96497
head 13.1729 4.15386 -2.80312
rclavicle -9.80878e-015 2.18663e-015
rhumerus -30.9965 -9.02628 -83.874
rradius 39.0664
rwrist -154.747
rhand -22.9161 -8.29481
rfingers 7.12502
rthumb 3.52413 -38.2454
lclavicle -9.80878e-015 2.18663e-015
lhumerus -37.3308 -16.2695 93.3463
lradius 34.5451
lwrist 12.8229
lhand -8.58379 28.7244
lfingers 7.12502
lthumb 17.347 57.9703
rfemur -2.03078 -12.8059 18.6954
rtibia 6.36111e-015
rfoot -7.3623 0.766151
rtoes -15.5226
lfemur -12.0007 7.88086 -16.1754
ltibia 19.3544
lfoot -15.9962 -3.38013
ltoes -28.4169
697
root 1.75816 18.4592 0.241459 27.5371 92.4693 17.7815
lowerback -9.89319 -0.667121 1.77247
upperback -3.14061 -0.969852 0.568467
thorax 2.2611 -0.438052 -0.519912
lowerneck -15.4304 6.06262 7.91801
upperneck 29.4902 10.0435 -8.33378
head 13.3336 4.54335 -2.90081
rclavicle 5.51317e-015 8.94531e-015
rhumerus -31.0395 -9.1864 -83.8172
rradius 39.0271
rwrist -154.789
rhand -22.9002 -8.35512
rfingers 7.12502
rthumb 3.53945 -38.3055
lclavicle 5.51317e-015 8.94531e-015
lhumerus -37.3967 -16.4801 93.3356
lradius 34.6264
lwrist 12.9572
lhand -8.44473 28.7187
lfingers 7.12502
lthumb 17.4809 57.9527
rfemur -2.0013 -12.7646 18.6775
rtibia -1.43125e-014
rfoot -7.35749 0.810014
rtoes -15.2067
lfemur -11.9614 7.82979 -16.1732
ltibia 19.3808
lfoot -16.0909 -3.25912
ltoes -28.6675
698
root 1.7581 18.4594 0.241626 28.1778 92.459 18.4851
lowerback -9.86965 -0.586337 1.95511
upperback -3.12855 -0.879608 0.543896
thorax 2.25906 -0.393427 -0.637339
lowerneck -14.9731 6.55974 8.38696
upperneck 29.6087 10.8885 -8.76773
head 13.4404 4.93857 -3.01292
rclavicle 3.96948e-015 -1.07344e-014
rhumerus -31.0316 -9.27735 -83.75
rradius 38.9851
rwrist -154.902
rhand -22.8363 -8.48209
rfingers 7.12502
rthumb 3.60115 -38.4314
lclavicle 3.96948e-015 -1.07344e-014
lhumerus -37.4135 -16.6368 93.3274
lradius 34.7346
lwrist 12.9952
lhand -8.42919 28.7318
lfingers 7.12502
lthumb 17.4958 57.9645
rfemur -1.92677 -12.7399 18.6873
rtibia 9.54166e-015
rfoot -7.36235 0.84283
rtoes -15.5241
lfemur -11.8794 7.75078 -16.1314
ltibia 19.4034
lfoot -16.124 -3.14861
ltoes -28.8001
699
root 1.76111 18.4595 0.243862 27.323 92.471 17.6435
lowerback -9.98148 -0.536764 2.02068
upperback -3.10244 -0.823508 0.552539
thorax 2.34809 -0.364375 -0.660189
lowerneck -14.5694 7.01047 8.72838
upperneck 29.8388 11.6898 -9.09415
head 13.5945 5.3131 -3.06792
rclavicle 4.92613e-015 5.1684e-015
rhumerus -31.0281 -9.37719 -83.6099
rradius 38.9898
rwrist -154.987
rhand -22.8458 -8.50034
rfingers 7.12502
rthumb 3.59198 -38.4498
lclavicle 4.92613e-015 5.1684e-015
lhumerus -37.3287 -16.6864 93.3166
lradius 34.7542
lwrist 13.0606
lhand -8.43606 28.6566
lfingers 7.12502
lthumb 17.4892 57.8899
rfemur -1.89729 -12.7666 18.6632
rtibia -1.27222e-014
rfoot -7.29352 0.852389
rtoes -16.4007
lfemur -11.8581 7.68143 -16.1443
ltibia 19.4161
lfoot -16.1245 -3.1226
ltoes -28.6841
